<mxfile host="app.diagrams.net" modified="2024-02-28T23:59:15.836Z" agent="Mozilla/5.0 (X11; Linux x86_64; rv:122.0) Gecko/20100101 Firefox/122.0" version="23.1.6" etag="uaG5qivoOwLO_VV2CUAC" type="github">
  <diagram name="PÃ¡gina-1" id="viP3ssvZu1navHgFtk2l">
    <mxGraphModel>
      <root>
        <mxCell id="0" />
        <mxCell id="1" parent="0" />
      </root>
    </mxGraphModel>
  </diagram>
</mxfile>
